<mxfile host="app.diagrams.net" agent="Mozilla/5.0 (Windows NT 10.0; Win64; x64) AppleWebKit/537.36 (KHTML, like Gecko) Chrome/130.0.0.0 Safari/537.36" version="24.8.4">
  <diagram name="Halaman-1" id="37S-OLtdcKFxbSwk2dX1">
    <mxGraphModel dx="1467" dy="1880" grid="0" gridSize="10" guides="1" tooltips="1" connect="1" arrows="1" fold="1" page="0" pageScale="1" pageWidth="1169" pageHeight="827" background="#99CCFF" math="0" shadow="1">
      <root>
        <mxCell id="0" />
        <mxCell id="1" parent="0" />
        <mxCell id="IvH5N945v9pod-Cn3tiP-44" value="" style="edgeStyle=orthogonalEdgeStyle;rounded=0;orthogonalLoop=1;jettySize=auto;html=1;labelBackgroundColor=none;strokeColor=#0B4D6A;fontColor=default;" edge="1" parent="1" source="IvH5N945v9pod-Cn3tiP-1" target="IvH5N945v9pod-Cn3tiP-2">
          <mxGeometry relative="1" as="geometry" />
        </mxCell>
        <mxCell id="IvH5N945v9pod-Cn3tiP-1" value="start (mulai)" style="ellipse;whiteSpace=wrap;html=1;labelBackgroundColor=none;fillColor=#09555B;strokeColor=#BAC8D3;fontColor=#EEEEEE;" vertex="1" parent="1">
          <mxGeometry x="499" y="-841" width="120" height="40" as="geometry" />
        </mxCell>
        <mxCell id="IvH5N945v9pod-Cn3tiP-43" value="" style="edgeStyle=orthogonalEdgeStyle;rounded=0;orthogonalLoop=1;jettySize=auto;html=1;labelBackgroundColor=none;strokeColor=#0B4D6A;fontColor=default;" edge="1" parent="1" source="IvH5N945v9pod-Cn3tiP-2" target="IvH5N945v9pod-Cn3tiP-3">
          <mxGeometry relative="1" as="geometry" />
        </mxCell>
        <mxCell id="IvH5N945v9pod-Cn3tiP-2" value="Tampilkan Menu&amp;nbsp;" style="rounded=0;whiteSpace=wrap;html=1;labelBackgroundColor=none;fillColor=#09555B;strokeColor=#BAC8D3;fontColor=#EEEEEE;" vertex="1" parent="1">
          <mxGeometry x="499" y="-721" width="120" height="50" as="geometry" />
        </mxCell>
        <mxCell id="IvH5N945v9pod-Cn3tiP-42" value="" style="edgeStyle=orthogonalEdgeStyle;rounded=0;orthogonalLoop=1;jettySize=auto;html=1;labelBackgroundColor=none;strokeColor=#0B4D6A;fontColor=default;" edge="1" parent="1" source="IvH5N945v9pod-Cn3tiP-3" target="IvH5N945v9pod-Cn3tiP-5">
          <mxGeometry relative="1" as="geometry" />
        </mxCell>
        <mxCell id="IvH5N945v9pod-Cn3tiP-3" value="Input Pilih Menu" style="shape=parallelogram;perimeter=parallelogramPerimeter;whiteSpace=wrap;html=1;fixedSize=1;labelBackgroundColor=none;fillColor=#09555B;strokeColor=#BAC8D3;fontColor=#EEEEEE;" vertex="1" parent="1">
          <mxGeometry x="474" y="-611" width="170" height="43" as="geometry" />
        </mxCell>
        <mxCell id="IvH5N945v9pod-Cn3tiP-20" value="" style="edgeStyle=orthogonalEdgeStyle;rounded=0;orthogonalLoop=1;jettySize=auto;html=1;labelBackgroundColor=none;strokeColor=#0B4D6A;fontColor=default;" edge="1" parent="1" source="IvH5N945v9pod-Cn3tiP-4" target="IvH5N945v9pod-Cn3tiP-13">
          <mxGeometry relative="1" as="geometry" />
        </mxCell>
        <mxCell id="IvH5N945v9pod-Cn3tiP-22" value="" style="edgeStyle=orthogonalEdgeStyle;rounded=0;orthogonalLoop=1;jettySize=auto;html=1;exitX=1;exitY=0.5;exitDx=0;exitDy=0;labelBackgroundColor=none;strokeColor=#0B4D6A;fontColor=default;" edge="1" parent="1" source="IvH5N945v9pod-Cn3tiP-4">
          <mxGeometry relative="1" as="geometry">
            <mxPoint x="837.0909090909086" y="-458.9990909090912" as="sourcePoint" />
            <mxPoint x="224" y="-200" as="targetPoint" />
            <Array as="points">
              <mxPoint x="918" y="-441" />
              <mxPoint x="918" y="-238" />
              <mxPoint x="224" y="-238" />
            </Array>
          </mxGeometry>
        </mxCell>
        <mxCell id="IvH5N945v9pod-Cn3tiP-4" value="apakah pilih U&lt;div&gt;(Ubah)&lt;/div&gt;" style="rhombus;whiteSpace=wrap;html=1;labelBackgroundColor=none;fillColor=#09555B;strokeColor=#BAC8D3;fontColor=#EEEEEE;" vertex="1" parent="1">
          <mxGeometry x="744" y="-491" width="100" height="100" as="geometry" />
        </mxCell>
        <mxCell id="IvH5N945v9pod-Cn3tiP-17" value="" style="edgeStyle=orthogonalEdgeStyle;rounded=0;orthogonalLoop=1;jettySize=auto;html=1;fontColor=default;entryX=0;entryY=0.5;entryDx=0;entryDy=0;labelBackgroundColor=none;strokeColor=#0B4D6A;" edge="1" parent="1" source="IvH5N945v9pod-Cn3tiP-5" target="IvH5N945v9pod-Cn3tiP-4">
          <mxGeometry relative="1" as="geometry">
            <mxPoint x="644" y="-462" as="targetPoint" />
          </mxGeometry>
        </mxCell>
        <mxCell id="IvH5N945v9pod-Cn3tiP-19" value="" style="edgeStyle=orthogonalEdgeStyle;rounded=0;orthogonalLoop=1;jettySize=auto;html=1;labelBackgroundColor=none;strokeColor=#0B4D6A;fontColor=default;" edge="1" parent="1" source="IvH5N945v9pod-Cn3tiP-5" target="IvH5N945v9pod-Cn3tiP-11">
          <mxGeometry relative="1" as="geometry" />
        </mxCell>
        <mxCell id="IvH5N945v9pod-Cn3tiP-5" value="apakah pilih T&lt;div&gt;(Tambah)&lt;/div&gt;" style="rhombus;whiteSpace=wrap;html=1;labelBackgroundColor=none;fillColor=#09555B;strokeColor=#BAC8D3;fontColor=#EEEEEE;" vertex="1" parent="1">
          <mxGeometry x="509" y="-491" width="100" height="100" as="geometry" />
        </mxCell>
        <mxCell id="IvH5N945v9pod-Cn3tiP-15" value="" style="edgeStyle=orthogonalEdgeStyle;rounded=0;orthogonalLoop=1;jettySize=auto;html=1;fontColor=default;entryX=0;entryY=0.5;entryDx=0;entryDy=0;labelBackgroundColor=none;strokeColor=#0B4D6A;" edge="1" parent="1" source="IvH5N945v9pod-Cn3tiP-6" target="IvH5N945v9pod-Cn3tiP-5">
          <mxGeometry relative="1" as="geometry">
            <mxPoint x="404" y="-462" as="targetPoint" />
          </mxGeometry>
        </mxCell>
        <mxCell id="IvH5N945v9pod-Cn3tiP-18" value="" style="edgeStyle=orthogonalEdgeStyle;rounded=0;orthogonalLoop=1;jettySize=auto;html=1;labelBackgroundColor=none;strokeColor=#0B4D6A;fontColor=default;" edge="1" parent="1" source="IvH5N945v9pod-Cn3tiP-6" target="IvH5N945v9pod-Cn3tiP-10">
          <mxGeometry relative="1" as="geometry" />
        </mxCell>
        <mxCell id="IvH5N945v9pod-Cn3tiP-6" value="apakah pilih&amp;nbsp;&lt;div&gt;L (pilih)?&lt;/div&gt;" style="rhombus;whiteSpace=wrap;html=1;labelBackgroundColor=none;fillColor=#09555B;strokeColor=#BAC8D3;fontColor=#EEEEEE;" vertex="1" parent="1">
          <mxGeometry x="220" y="-503" width="100" height="100" as="geometry" />
        </mxCell>
        <mxCell id="IvH5N945v9pod-Cn3tiP-29" value="YES&lt;div&gt;&lt;br&gt;&lt;/div&gt;" style="rounded=0;orthogonalLoop=1;jettySize=auto;html=1;labelBackgroundColor=none;strokeColor=#0B4D6A;fontColor=default;" edge="1" parent="1" source="IvH5N945v9pod-Cn3tiP-7" target="IvH5N945v9pod-Cn3tiP-25">
          <mxGeometry relative="1" as="geometry" />
        </mxCell>
        <mxCell id="IvH5N945v9pod-Cn3tiP-35" value="YES" style="edgeLabel;html=1;align=center;verticalAlign=middle;resizable=0;points=[];labelBackgroundColor=none;fontColor=#EEEEEE;" vertex="1" connectable="0" parent="IvH5N945v9pod-Cn3tiP-29">
          <mxGeometry x="-0.3741" y="-2" relative="1" as="geometry">
            <mxPoint as="offset" />
          </mxGeometry>
        </mxCell>
        <mxCell id="IvH5N945v9pod-Cn3tiP-32" value="" style="edgeStyle=orthogonalEdgeStyle;rounded=0;orthogonalLoop=1;jettySize=auto;html=1;labelBackgroundColor=none;strokeColor=#0B4D6A;fontColor=default;" edge="1" parent="1">
          <mxGeometry relative="1" as="geometry">
            <mxPoint x="758.2299999999996" y="-148.00000000000023" as="sourcePoint" />
            <mxPoint x="634.9974418604652" y="-586.0000000000002" as="targetPoint" />
            <Array as="points">
              <mxPoint x="958.23" y="-148" />
              <mxPoint x="958.23" y="-586" />
            </Array>
          </mxGeometry>
        </mxCell>
        <mxCell id="IvH5N945v9pod-Cn3tiP-33" value="&lt;h2&gt;NO&lt;/h2&gt;" style="edgeLabel;html=1;align=center;verticalAlign=middle;resizable=0;points=[];labelBackgroundColor=none;fontColor=#EEEEEE;" vertex="1" connectable="0" parent="IvH5N945v9pod-Cn3tiP-32">
          <mxGeometry x="-0.8306" y="-1" relative="1" as="geometry">
            <mxPoint as="offset" />
          </mxGeometry>
        </mxCell>
        <mxCell id="IvH5N945v9pod-Cn3tiP-7" value="apakah pilih&lt;div&gt;&amp;nbsp;K&lt;div&gt;(Keluar)&lt;/div&gt;&lt;/div&gt;" style="rhombus;whiteSpace=wrap;html=1;labelBackgroundColor=none;fillColor=#09555B;strokeColor=#BAC8D3;fontColor=#EEEEEE;" vertex="1" parent="1">
          <mxGeometry x="660" y="-198" width="100" height="100" as="geometry" />
        </mxCell>
        <mxCell id="IvH5N945v9pod-Cn3tiP-24" value="" style="edgeStyle=orthogonalEdgeStyle;rounded=0;orthogonalLoop=1;jettySize=auto;html=1;labelBackgroundColor=none;strokeColor=#0B4D6A;fontColor=default;" edge="1" parent="1" source="IvH5N945v9pod-Cn3tiP-8" target="IvH5N945v9pod-Cn3tiP-7">
          <mxGeometry relative="1" as="geometry" />
        </mxCell>
        <mxCell id="IvH5N945v9pod-Cn3tiP-46" value="" style="rounded=0;orthogonalLoop=1;jettySize=auto;html=1;labelBackgroundColor=none;strokeColor=#0B4D6A;fontColor=default;" edge="1" parent="1" source="IvH5N945v9pod-Cn3tiP-8" target="IvH5N945v9pod-Cn3tiP-26">
          <mxGeometry relative="1" as="geometry" />
        </mxCell>
        <mxCell id="IvH5N945v9pod-Cn3tiP-48" value="" style="rounded=0;orthogonalLoop=1;jettySize=auto;html=1;labelBackgroundColor=none;strokeColor=#0B4D6A;fontColor=default;" edge="1" parent="1">
          <mxGeometry relative="1" as="geometry">
            <mxPoint x="520" y="-240" as="sourcePoint" />
            <mxPoint x="520" y="-198" as="targetPoint" />
          </mxGeometry>
        </mxCell>
        <mxCell id="IvH5N945v9pod-Cn3tiP-8" value="apakah pilih C&lt;div&gt;(cari)&lt;/div&gt;" style="rhombus;whiteSpace=wrap;html=1;labelBackgroundColor=none;fillColor=#09555B;strokeColor=#BAC8D3;fontColor=#EEEEEE;" vertex="1" parent="1">
          <mxGeometry x="470" y="-198" width="99.5" height="100" as="geometry" />
        </mxCell>
        <mxCell id="IvH5N945v9pod-Cn3tiP-23" value="" style="edgeStyle=orthogonalEdgeStyle;rounded=0;orthogonalLoop=1;jettySize=auto;html=1;labelBackgroundColor=none;strokeColor=#0B4D6A;fontColor=default;" edge="1" parent="1" source="IvH5N945v9pod-Cn3tiP-9" target="IvH5N945v9pod-Cn3tiP-8">
          <mxGeometry relative="1" as="geometry">
            <Array as="points">
              <mxPoint x="390" y="-150" />
              <mxPoint x="390" y="-150" />
            </Array>
          </mxGeometry>
        </mxCell>
        <mxCell id="IvH5N945v9pod-Cn3tiP-45" value="" style="edgeStyle=orthogonalEdgeStyle;rounded=0;orthogonalLoop=1;jettySize=auto;html=1;labelBackgroundColor=none;strokeColor=#0B4D6A;fontColor=default;" edge="1" parent="1" source="IvH5N945v9pod-Cn3tiP-9" target="IvH5N945v9pod-Cn3tiP-27">
          <mxGeometry relative="1" as="geometry" />
        </mxCell>
        <mxCell id="IvH5N945v9pod-Cn3tiP-9" value="apakah pilih H&lt;div&gt;(Hapus)&lt;/div&gt;" style="rhombus;whiteSpace=wrap;html=1;labelBackgroundColor=none;fillColor=#09555B;strokeColor=#BAC8D3;fontColor=#EEEEEE;" vertex="1" parent="1">
          <mxGeometry x="170" y="-201" width="100" height="100" as="geometry" />
        </mxCell>
        <mxCell id="IvH5N945v9pod-Cn3tiP-10" value="Menampilkan data yang ada" style="rounded=0;whiteSpace=wrap;html=1;labelBackgroundColor=none;fillColor=#09555B;strokeColor=#BAC8D3;fontColor=#EEEEEE;" vertex="1" parent="1">
          <mxGeometry x="234" y="-351" width="120" height="60" as="geometry" />
        </mxCell>
        <mxCell id="IvH5N945v9pod-Cn3tiP-11" value="Input data (NIM, Nama, Tugas, UTS, UAS)" style="shape=parallelogram;perimeter=parallelogramPerimeter;whiteSpace=wrap;html=1;fixedSize=1;labelBackgroundColor=none;fillColor=#09555B;strokeColor=#BAC8D3;fontColor=#EEEEEE;" vertex="1" parent="1">
          <mxGeometry x="479" y="-364" width="160" height="60" as="geometry" />
        </mxCell>
        <mxCell id="IvH5N945v9pod-Cn3tiP-12" value="Pengguna diminta memasukan NIM yang ingin di ubah." style="shape=parallelogram;perimeter=parallelogramPerimeter;whiteSpace=wrap;html=1;fixedSize=1;labelBackgroundColor=none;fillColor=#09555B;strokeColor=#BAC8D3;fontColor=#EEEEEE;" vertex="1" parent="1">
          <mxGeometry x="719" y="-369" width="150" height="60" as="geometry" />
        </mxCell>
        <mxCell id="IvH5N945v9pod-Cn3tiP-13" value="Hasil pengubah data" style="rounded=0;whiteSpace=wrap;html=1;labelBackgroundColor=none;fillColor=#09555B;strokeColor=#BAC8D3;fontColor=#EEEEEE;" vertex="1" parent="1">
          <mxGeometry x="734" y="-281" width="120" height="20" as="geometry" />
        </mxCell>
        <mxCell id="IvH5N945v9pod-Cn3tiP-30" value="" style="edgeStyle=orthogonalEdgeStyle;rounded=0;orthogonalLoop=1;jettySize=auto;html=1;labelBackgroundColor=none;strokeColor=#0B4D6A;fontColor=default;" edge="1" parent="1" source="IvH5N945v9pod-Cn3tiP-25">
          <mxGeometry relative="1" as="geometry">
            <mxPoint x="904" y="19.000000000000227" as="targetPoint" />
          </mxGeometry>
        </mxCell>
        <mxCell id="IvH5N945v9pod-Cn3tiP-25" value="program keluar&amp;nbsp;" style="shape=parallelogram;perimeter=parallelogramPerimeter;whiteSpace=wrap;html=1;fixedSize=1;labelBackgroundColor=none;fillColor=#09555B;strokeColor=#BAC8D3;fontColor=#EEEEEE;" vertex="1" parent="1">
          <mxGeometry x="635" y="-29" width="150" height="60" as="geometry" />
        </mxCell>
        <mxCell id="IvH5N945v9pod-Cn3tiP-26" value="Pengguna diminta untuk memasukan NIM yang&amp;nbsp;&lt;div&gt;ingin dicari&amp;nbsp;&lt;/div&gt;" style="shape=parallelogram;perimeter=parallelogramPerimeter;whiteSpace=wrap;html=1;fixedSize=1;labelBackgroundColor=none;fillColor=#09555B;strokeColor=#BAC8D3;fontColor=#EEEEEE;" vertex="1" parent="1">
          <mxGeometry x="424.75" y="-41" width="190" height="60" as="geometry" />
        </mxCell>
        <mxCell id="IvH5N945v9pod-Cn3tiP-27" value="Pengguna diminta untuk&amp;nbsp;&lt;div&gt;memasukan NIM yang&amp;nbsp;&lt;/div&gt;&lt;div&gt;ingin dihapus&amp;nbsp;&lt;/div&gt;" style="shape=parallelogram;perimeter=parallelogramPerimeter;whiteSpace=wrap;html=1;fixedSize=1;labelBackgroundColor=none;fillColor=#09555B;strokeColor=#BAC8D3;fontColor=#EEEEEE;" vertex="1" parent="1">
          <mxGeometry x="204" y="-41" width="180" height="60" as="geometry" />
        </mxCell>
        <mxCell id="IvH5N945v9pod-Cn3tiP-28" value="END" style="ellipse;whiteSpace=wrap;html=1;labelBackgroundColor=none;fillColor=#09555B;strokeColor=#BAC8D3;fontColor=#EEEEEE;" vertex="1" parent="1">
          <mxGeometry x="901" y="-4" width="120" height="50" as="geometry" />
        </mxCell>
        <mxCell id="IvH5N945v9pod-Cn3tiP-41" value="" style="edgeStyle=none;orthogonalLoop=1;jettySize=auto;html=1;rounded=0;entryX=0.5;entryY=0;entryDx=0;entryDy=0;labelBackgroundColor=none;strokeColor=#0B4D6A;fontColor=default;" edge="1" parent="1">
          <mxGeometry width="80" relative="1" as="geometry">
            <mxPoint x="273" y="-504" as="sourcePoint" />
            <mxPoint x="793" y="-492.9999999999998" as="targetPoint" />
            <Array as="points">
              <mxPoint x="273" y="-522" />
              <mxPoint x="793" y="-522" />
            </Array>
          </mxGeometry>
        </mxCell>
        <mxCell id="IvH5N945v9pod-Cn3tiP-49" value="" style="edgeStyle=none;orthogonalLoop=1;jettySize=auto;html=1;rounded=0;entryX=0.5;entryY=0;entryDx=0;entryDy=0;labelBackgroundColor=none;strokeColor=#0B4D6A;fontColor=default;" edge="1" parent="1" target="IvH5N945v9pod-Cn3tiP-7">
          <mxGeometry width="100" relative="1" as="geometry">
            <mxPoint x="710" y="-240" as="sourcePoint" />
            <mxPoint x="390" y="-650" as="targetPoint" />
            <Array as="points" />
          </mxGeometry>
        </mxCell>
      </root>
    </mxGraphModel>
  </diagram>
</mxfile>
